# xmcd
# 
# Track frame offsets:
#     150
#     16667
#     26231
#     43151
#     56806
#     77479
#     86036
#     111569
#     121550
#     141150
#     166691
# 
# Disc length: 2548
# 
# Revision: 3
# Processed by: cddbd v1.5.2PL0 Copyright (c) Steve Scherf et al.
# Submitted via: BonkEnc v1.0.8
# 
DISCID=8809f20b
DTITLE=Micah P. Hinson - Micah P. Hinson and the Opera Circuit
DYEAR=2006
DGENRE=Americana, Indie Pop/Rock
TTITLE0=Seems Almost Impossible
TTITLE1=Diggin a Grave
TTITLE2=Jackeyed
TTITLE3=It's Been So Long
TTITLE4=Drift off to Sleep
TTITLE5=Letter to Huntsville
TTITLE6=She Don't Own Me
TTITLE7=My Time Wasted
TTITLE8=Little Boy's Dream
TTITLE9=You're Only Lonely
TTITLE10=Don't Leave Me Now
EXTD=
EXTT0=
EXTT1=
EXTT2=
EXTT3=
EXTT4=
EXTT5=
EXTT6=
EXTT7=
EXTT8=
EXTT9=
EXTT10=
PLAYORDER=
